<svg width="1440" height="544" viewBox="0 0 1440 544" fill="none" xmlns="http://www.w3.org/2000/svg">
<g clip-path="url(#clip0_212_16580)" filter="url(#filter0_f_212_16580)">
<path opacity="0.15" d="M1345.19 255.88C1378.7 292.97 1405.88 357.451 1355.8 402.973C1350.63 407.666 1302.18 450.248 1229.3 444.96C1140.54 438.52 1122.34 368.812 1024.38 350.716C918.298 331.119 856.037 397.425 804.231 377.056C742.971 352.97 735.451 223.071 846.331 167.396C979.906 100.326 1255.08 156.151 1345.19 255.88Z" fill="#EBC136"/>
<path opacity="0.15" d="M510.245 447.639C541.307 428.569 575.155 390.148 554.134 351.285C551.966 347.278 531.262 310.654 482.679 301.834C423.505 291.09 394.162 334.52 326.092 329.996C252.375 325.096 228.688 270.301 189.971 275.114C144.189 280.806 106.627 366.21 164.513 422.149C234.248 489.538 426.723 498.917 510.245 447.639Z" fill="#EBC136"/>
<path opacity="0.15" d="M692.575 339.89C677.187 318.799 661.464 278.221 674.947 240.859C676.337 237.007 689.519 201.857 715.877 196.297C747.983 189.526 761.013 234.799 797.481 234.823C836.973 234.849 852.817 181.774 873.122 189.155C897.131 197.883 912.044 285.57 877.944 337.508C836.865 400.075 733.953 396.602 692.575 339.89Z" fill="#EBC136"/>
<path opacity="0.15" d="M680.467 292.802C697.285 282.124 715.622 260.633 704.277 238.936C703.107 236.699 691.931 216.254 665.654 211.363C633.649 205.407 617.745 229.693 580.923 227.218C541.047 224.538 528.27 193.943 507.322 196.661C482.55 199.876 462.171 247.62 493.448 278.828C531.128 316.423 635.247 321.514 680.467 292.802Z" fill="#EBC136"/>
<path opacity="0.15" d="M1404.62 266.365C1422.76 250.046 1442.7 217.494 1430.95 185.192C1429.74 181.861 1418.14 151.43 1390.17 144.595C1356.09 136.269 1338.7 172.965 1299.42 169.946C1256.89 166.678 1243.75 121.066 1221.34 125.534C1194.83 130.818 1172.28 202.751 1205.15 248.934C1244.76 304.569 1355.86 310.244 1404.62 266.365Z" fill="#8047F8"/>
<path opacity="0.15" d="M1416.61 395.852C1430.71 406.804 1446.15 428.725 1436.84 450.622C1435.88 452.88 1426.7 473.511 1404.82 478.261C1378.16 484.047 1364.73 459.312 1334.03 461.533C1300.79 463.938 1290.35 494.841 1272.86 491.922C1252.17 488.471 1234.84 439.932 1260.71 408.552C1291.88 370.749 1378.69 366.404 1416.61 395.852Z" fill="#8047F8"/>
<path opacity="0.15" d="M217.937 154.891C230.507 176.616 242.932 218.056 230.695 255.491C229.433 259.351 217.5 294.558 195.055 299.502C167.717 305.524 157.675 259.405 126.792 258.442C93.347 257.4 78.7653 310.665 61.7319 302.678C41.5904 293.234 30.883 204.175 60.8998 152.53C97.0604 90.3152 184.139 96.4762 217.937 154.891Z" fill="#EBC136"/>
<path opacity="0.15" d="M859.507 450.947C833.621 431.727 808.462 393.18 834.926 354.528C837.654 350.543 863.434 314.123 910.6 305.62C968.048 295.262 988.109 338.78 1052.84 334.683C1122.94 330.246 1154.66 275.712 1190.2 280.753C1232.23 286.713 1252.76 372.166 1188.71 427.631C1111.55 494.449 929.112 502.627 859.507 450.947Z" fill="#EBC136"/>
<path opacity="0.15" d="M785.922 417.538C807.564 398.513 830.249 361.904 812.967 328.187C811.185 324.71 794.248 292.989 758.43 287.962C714.805 281.84 695.654 322.687 645.868 322.695C591.953 322.704 571.92 274.808 543.979 281.46C510.939 289.327 487.942 368.444 532.931 415.321C587.129 471.792 727.728 468.695 785.922 417.538Z" fill="#8047F8"/>
<path opacity="0.15" d="M833.472 159.004C874.019 169.666 917.079 189.465 886.336 206.257C883.167 207.989 852.993 223.762 787.11 225.009C706.863 226.528 670.181 204.67 578.369 202.784C478.942 200.742 443.601 224.767 391.852 220.269C330.659 214.95 285.602 173.145 367 150.591C465.058 123.42 724.443 130.335 833.472 159.004Z" fill="#8047F8"/>
<path opacity="0.15" d="M166.139 400.866C185.225 378.714 205.35 336.381 190.454 297.978C188.918 294.018 174.31 257.899 142.98 252.685C104.82 246.335 87.7611 293.475 44.1632 294.25C-3.05088 295.089 -20.2558 240.467 -44.7709 248.526C-73.7595 258.056 -94.4579 349.145 -55.3915 402.214C-8.32917 466.144 114.816 460.431 166.139 400.866Z" fill="#8047F8"/>
</g>
<defs>
<filter id="filter0_f_212_16580" x="-189" y="-142" width="1760" height="864" filterUnits="userSpaceOnUse" color-interpolation-filters="sRGB">
<feFlood flood-opacity="0" result="BackgroundImageFix"/>
<feBlend mode="normal" in="SourceGraphic" in2="BackgroundImageFix" result="shape"/>
<feGaussianBlur stdDeviation="80" result="effect1_foregroundBlur_212_16580"/>
</filter>
<clipPath id="clip0_212_16580">
<rect width="1440" height="544" fill="white" transform="translate(-29 18)"/>
</clipPath>
</defs>
</svg>
